<?xml version="1.0" encoding="UTF-8" standalone="no"?>
<!-- Created with Inkscape (http://www.inkscape.org/) -->

<svg
   width="512"
   height="512"
   viewBox="0 0 135.46666 135.46667"
   version="1.1"
   id="svg5"
   sodipodi:docname="mosaico.svg"
   inkscape:version="1.1.2 (1:1.1+202202050950+0a00cf5339)"
   xmlns:inkscape="http://www.inkscape.org/namespaces/inkscape"
   xmlns:sodipodi="http://sodipodi.sourceforge.net/DTD/sodipodi-0.dtd"
   xmlns:xlink="http://www.w3.org/1999/xlink"
   xmlns="http://www.w3.org/2000/svg"
   xmlns:svg="http://www.w3.org/2000/svg">
  <sodipodi:namedview
     id="namedview7"
     pagecolor="#ffffff"
     bordercolor="#666666"
     borderopacity="1.0"
     inkscape:pageshadow="2"
     inkscape:pageopacity="0.0"
     inkscape:pagecheckerboard="0"
     inkscape:document-units="px"
     showgrid="false"
     units="px"
     width="100px"
     inkscape:zoom="0.38803576"
     inkscape:cx="1030.8328"
     inkscape:cy="843.99438"
     inkscape:window-width="1920"
     inkscape:window-height="1019"
     inkscape:window-x="0"
     inkscape:window-y="30"
     inkscape:window-maximized="1"
     inkscape:current-layer="layer1" />
  <defs
     id="defs2" />
  <g
     inkscape:label="Layer 1"
     inkscape:groupmode="layer"
     id="layer1">
    <use
       x="0"
       y="0"
       inkscape:tiled-clone-of="#g948"
       xlink:href="#g948"
       id="use950"
       width="100%"
       height="100%" />
    <use
       x="0"
       y="0"
       inkscape:tiled-clone-of="#g948"
       xlink:href="#g948"
       transform="translate(0,135.46666)"
       id="use952"
       width="100%"
       height="100%" />
    <use
       x="0"
       y="0"
       inkscape:tiled-clone-of="#g948"
       xlink:href="#g948"
       transform="translate(0,270.93331)"
       id="use954"
       width="100%"
       height="100%" />
    <use
       x="0"
       y="0"
       inkscape:tiled-clone-of="#g948"
       xlink:href="#g948"
       transform="translate(135.46666)"
       id="use956"
       width="100%"
       height="100%" />
    <use
       x="0"
       y="0"
       inkscape:tiled-clone-of="#g948"
       xlink:href="#g948"
       transform="translate(135.46666,135.46666)"
       id="use958"
       width="100%"
       height="100%"
       inkscape:export-filename="/home/abel/Projects/knota-core/assets/mosaico.png"
       inkscape:export-xdpi="96"
       inkscape:export-ydpi="96" />
    <use
       x="0"
       y="0"
       inkscape:tiled-clone-of="#g948"
       xlink:href="#g948"
       transform="translate(135.46666,270.93331)"
       id="use960"
       width="100%"
       height="100%" />
    <use
       x="0"
       y="0"
       inkscape:tiled-clone-of="#g948"
       xlink:href="#g948"
       transform="translate(270.93331)"
       id="use962"
       width="100%"
       height="100%" />
    <use
       x="0"
       y="0"
       inkscape:tiled-clone-of="#g948"
       xlink:href="#g948"
       transform="translate(270.93331,135.46666)"
       id="use964"
       width="100%"
       height="100%" />
    <use
       x="0"
       y="0"
       inkscape:tiled-clone-of="#g948"
       xlink:href="#g948"
       transform="translate(270.93331,270.93331)"
       id="use966"
       width="100%"
       height="100%" />
    <g
       id="g948"
       inkscape:tile-cx="67.733328"
       inkscape:tile-cy="67.733328"
       inkscape:tile-w="135.46666"
       inkscape:tile-h="135.46666"
       inkscape:tile-x0="0"
       inkscape:tile-y0="0">
      <path
         id="rect846"
         style="fill:#916f6f;stroke-width:0.264583"
         d="M 0,0 H 135.46666 V 135.46666 H 0 Z" />
      <ellipse
         style="fill:#ff0000;stroke-width:0.129183"
         id="path1008"
         cx="34.958164"
         cy="33.821236"
         rx="12.873482"
         ry="14.76099" />
      <g
         id="g1264"
         transform="matrix(0.26458333,0,0,0.26458333,-10.806043,44.853242)">
        <path
           d="m 127.22,93.42 c 0,13.86 -28.29,25.1 -63.22,25.1 C 29.08,118.52 0.77,107.28 0.77,93.42 0.77,79.55 2.24,9.48 64,9.48 c 61.77,0 63.22,70.06 63.22,83.94"
           style="fill:#fcc21b"
           id="path1234" />
        <path
           d="m 82.18,93.97 c 9.68,-0.36 14.23,12.61 24.02,9.77 1.83,-0.52 3.71,-1.75 5.25,-3.39 l -0.06,-0.06 0.06,0.06 c 1.53,-1.65 2.55,-3.62 3.04,-5.46 2.96,-11.15 -9.57,-21.61 -13.72,-20.76 z"
           style="fill:#d7598b"
           id="path1236" />
        <g
           id="g1242">
          <path
             d="m 64,98.38 c -1.66,0 -3,-1.34 -3,-3 0,-1.66 1.34,-3 3,-3 14.93,0 27.82,-8.18 32.07,-20.35 0.55,-1.56 2.26,-2.39 3.82,-1.84 1.56,0.55 2.39,2.26 1.84,3.82 C 96.64,88.59 81.48,98.38 64,98.38 Z"
             style="fill:#2f2f2f"
             id="path1238" />
          <path
             d="m 64,98.38 c -17.48,0 -32.64,-9.79 -37.74,-24.37 -0.55,-1.56 0.28,-3.28 1.84,-3.82 1.56,-0.54 3.27,0.28 3.82,1.84 4.26,12.18 17.15,20.35 32.08,20.35 1.66,0 3,1.34 3,3 0,1.66 -1.34,3 -3,3 z"
             style="fill:#2f2f2f"
             id="path1240" />
        </g>
        <g
           id="g1248">
          <path
             d="m 30.84,55.61 c -0.78,1.28 -2.44,1.7 -3.73,0.93 -1.29,-0.77 -1.71,-2.42 -0.96,-3.71 0.18,-0.31 4.6,-7.62 14.37,-7.62 9.78,0 14.2,7.31 14.39,7.62 0.76,1.29 0.32,2.97 -0.97,3.73 -0.44,0.26 -0.91,0.38 -1.39,0.38 -0.92,0 -1.83,-0.47 -2.34,-1.32 -0.13,-0.22 -3.12,-4.96 -9.69,-4.96 -6.57,-0.01 -9.55,4.74 -9.68,4.95 z"
             style="fill:#2f2f2f"
             id="path1244" />
          <path
             d="m 100.88,56.55 c -0.43,0.26 -0.91,0.38 -1.37,0.38 -0.94,0 -1.85,-0.49 -2.36,-1.34 -0.11,-0.2 -3.08,-4.94 -9.66,-4.94 -6.69,0 -9.66,4.89 -9.69,4.94 -0.77,1.29 -2.43,1.73 -3.73,0.96 -1.29,-0.76 -1.73,-2.44 -0.96,-3.73 0.18,-0.31 4.6,-7.62 14.38,-7.62 9.77,0 14.18,7.31 14.36,7.62 0.76,1.3 0.32,2.98 -0.97,3.73 z"
             style="fill:#2f2f2f"
             id="path1246" />
        </g>
      </g>
      <g
         id="g1375"
         transform="matrix(0.26458333,0,0,0.26458333,125.19,44.853242)">
        <path
           d="m 127.22,93.42 c 0,13.86 -28.29,25.1 -63.22,25.1 C 29.08,118.52 0.77,107.28 0.77,93.42 0.77,79.55 2.24,9.48 64,9.48 c 61.77,0 63.22,70.06 63.22,83.94"
           style="fill:#fcc21b"
           id="path1359" />
        <path
           d="m 82.18,93.97 c 9.68,-0.36 14.23,12.61 24.02,9.77 1.83,-0.52 3.71,-1.75 5.25,-3.39 l -0.06,-0.06 0.06,0.06 c 1.53,-1.65 2.55,-3.62 3.04,-5.46 2.96,-11.15 -9.57,-21.61 -13.72,-20.76 z"
           style="fill:#d7598b"
           id="path1361" />
        <g
           id="g1367">
          <path
             d="m 64,98.38 c -1.66,0 -3,-1.34 -3,-3 0,-1.66 1.34,-3 3,-3 14.93,0 27.82,-8.18 32.07,-20.35 0.55,-1.56 2.26,-2.39 3.82,-1.84 1.56,0.55 2.39,2.26 1.84,3.82 C 96.64,88.59 81.48,98.38 64,98.38 Z"
             style="fill:#2f2f2f"
             id="path1363" />
          <path
             d="m 64,98.38 c -17.48,0 -32.64,-9.79 -37.74,-24.37 -0.55,-1.56 0.28,-3.28 1.84,-3.82 1.56,-0.54 3.27,0.28 3.82,1.84 4.26,12.18 17.15,20.35 32.08,20.35 1.66,0 3,1.34 3,3 0,1.66 -1.34,3 -3,3 z"
             style="fill:#2f2f2f"
             id="path1365" />
        </g>
        <g
           id="g1373">
          <path
             d="m 30.84,55.61 c -0.78,1.28 -2.44,1.7 -3.73,0.93 -1.29,-0.77 -1.71,-2.42 -0.96,-3.71 0.18,-0.31 4.6,-7.62 14.37,-7.62 9.78,0 14.2,7.31 14.39,7.62 0.76,1.29 0.32,2.97 -0.97,3.73 -0.44,0.26 -0.91,0.38 -1.39,0.38 -0.92,0 -1.83,-0.47 -2.34,-1.32 -0.13,-0.22 -3.12,-4.96 -9.69,-4.96 -6.57,-0.01 -9.55,4.74 -9.68,4.95 z"
             style="fill:#2f2f2f"
             id="path1369" />
          <path
             d="m 100.88,56.55 c -0.43,0.26 -0.91,0.38 -1.37,0.38 -0.94,0 -1.85,-0.49 -2.36,-1.34 -0.11,-0.2 -3.08,-4.94 -9.66,-4.94 -6.69,0 -9.66,4.89 -9.69,4.94 -0.77,1.29 -2.43,1.73 -3.73,0.96 -1.29,-0.76 -1.73,-2.44 -0.96,-3.73 0.18,-0.31 4.6,-7.62 14.38,-7.62 9.77,0 14.18,7.31 14.36,7.62 0.76,1.3 0.32,2.98 -0.97,3.73 z"
             style="fill:#2f2f2f"
             id="path1371" />
        </g>
      </g>
      <ellipse
         style="fill:#c8ab37;stroke-width:0.129183"
         id="ellipse1377"
         cx="102.01175"
         cy="101.02599"
         rx="12.873482"
         ry="14.76099" />
    </g>
  </g>
</svg>
